<?xml version="1.0" encoding="utf-8"?>
<!-- Generator: Adobe Illustrator 22.1.0, SVG Export Plug-In . SVG Version: 6.00 Build 0)  -->
<svg version="1.1" id="レイヤー_1" xmlns="http://www.w3.org/2000/svg" xmlns:xlink="http://www.w3.org/1999/xlink" x="0px"
	 y="0px" width="600px" height="600px" viewBox="0 0 600 600" style="enable-background:new 0 0 600 600;" xml:space="preserve">
<style type="text/css">
	.st0{fill:#FFFFFF;}
</style>
<path class="st0" d="M261.4,476.4h-35c0-11.4-0.1-21.3-0.1-24.9h35.2C261.4,455.2,261.4,465,261.4,476.4"/>
<path class="st0" d="M226.3,507.7c0-9,0-19.7,0-29.5h35c0,9.7,0,20.5,0,29.5H226.3z"/>
<path class="st0" d="M321.5,492.9c0-9.8,0-17.3,0-20.7h17.3c0,3.4-0.1,10.8,0,20.7H321.5z"/>
<path class="st0" d="M430.2,0H169.8C76,0,0,76,0,169.8v260.5C0,524,76,600,169.8,600h260.5C524,600,600,524,600,430.2V169.8
	C600,76,524,0,430.2,0z M418.4,48v351.3H79.2L418.4,48z M114.7,432.7l22.5-23.2h292.1V106.9l24.7-25.5v351.2H114.7z M269.3,453.5
	c-0.8,19.2-0.4,45-0.3,61.2c0,0.2-0.1,0.3-0.3,0.3h-7.1c-0.2,0-0.3-0.1-0.3-0.3c0-1.6,0-3.4,0-5.2h-35.1c0,1.8,0,3.6,0,5.2
	c0,0.2-0.1,0.3-0.3,0.3h-7.7c-0.2,0-0.3-0.1-0.3-0.3c0.7-18.3,1.3-48.9-0.6-68.4c0-0.2,0.4-0.1,0.6,0c0.1,0.1,5.7,2.2,8.6,3.4h32.8
	c1.7-1.3,4.9-3.8,5.2-3.8c0.4,0,6.8,4,7.3,4.7C272.3,451.1,270.5,451.6,269.3,453.5z M338.5,500.3c0-2,0-3.8,0-5.6h-17.2
	c0,1.9,0,3.8,0,5.8c0,0.1-0.1,0.2-0.2,0.2h-5.6c-0.1,0-0.2-0.1-0.2-0.2c0.6-14.6,1-17.9-0.5-33.3c-0.1-0.2,0.2-0.1,0.4,0
	c0.1,0.1,6.1,2.6,7.5,3.3h13.6c1-0.9,4.4-3.5,4.7-3.5c0.3,0,5.5,3.2,6,3.8c0.4,0.4-1,0.8-2,2.3c-0.6,12.8-0.3,14.3-0.2,27.2
	c0,0.1-0.1,0.2-0.5,0.3h-5.7C338.6,500.5,338.5,500.4,338.5,500.3z M361.8,459.1c-0.8,18.1-0.4,36.6-0.3,52.8c0,1.6-0.6,3.2-2.1,4.3
	c-0.5,0.3-1.1,0.6-1.9,0.8c-3.6-2.9-11.1-6.8-14.8-7.8c-1.1-0.4-0.6-0.9-0.3-1.1s6.1,0.6,8.8,0.9c1.7,0.2,3.3,0,3.3-2.6
	c0-18.5,0.1-42.2,0.1-48.8h-48.2c0,7.2,0.2,37.7,0,57.3c0,0.2-0.1,0.3-0.3,0.3h-7c-0.2,0-0.3-0.1-0.3-0.3
	c0.7-18.3,1.3-43.1-0.6-62.5c0-0.2,0.4-0.1,0.6,0c0.1,0,5.2,2.2,7.9,3.4h12.8c2.1-3.1,4.3-11.1,4.6-13.2c6,1.9,10.2,3.7,9.9,4.4
	c-0.3,0.8-2.4,0.2-3.8,1.6c-1.1,1.1-6.7,5.7-8.6,7.2h30.5c1.5-1.2,5-4.1,5.3-4.1c0.4,0,6.3,4.1,6.7,4.8
	C364.8,456.8,363,457.2,361.8,459.1z M457.1,515.8c-0.5-0.2-12.3-4-22.8-14.6c-0.1-0.1-0.1-0.1-0.2-0.2c-10.1,10-21.5,14-22.8,14.3
	c-0.6,0.2-1.2-0.9-0.5-1.3c8.6-5.2,15.1-11.1,19.8-16.9c-7.5-9.9-9.7-21-9.6-20.9h6.2c1.4,5.4,3.7,10.8,7,16.2
	c6.1-9.2,8.4-17.9,8.6-23.7h-23.6c-0.8,16.5-4.2,30.7-16.4,40.7c-0.9,0.6-1.4-0.4-1.1-0.9c4.1-6.4,6.6-12.1,8.2-17.3
	c-7.7,5-21,11.4-22,12c-1.3,0.7-1.9,2.2-2.4,1.7c-1.2-1.1-3-6.4-2.9-8.2c0.3-0.2,4.3-1,9.5-2.2c0.3-8.9,0.6-17.3,0.6-25.9h-8.3v-1.8
	h8.3c-0.1-7.6-0.4-15.4-1.2-23.8c0-0.2,0.4-0.1,0.6,0s8,2.1,9.2,2.5c0.2,0.1,0,1.5-1.6,2.1c0,2.5,0.1,9.9,0.1,19.4h1.7
	c1.3-0.9,3.1-4.5,3.9-4.5c0.9,0,3.6,4.5,4.6,4.5v1.8h-10.1c0,7.6,0,16.1-0.1,24.2c3.9-1,7.7-2.1,10.6-3.2c2.6-9.9,2-18.7,2-29.7
	c-0.2-4.7-0.6-9.6-1-14.7c0-0.2,0.4-0.1,0.6,0c0.2,0.1,4.3,2.2,7.5,3.7h0.2v0.1c0.7,0.4,1.3,0.7,1.9,0.9h19.7c1.4-1.7,5-6,5.3-6
	c0.4,0,8.1,6.3,8.1,7.3c0,0.8-4,0.7-4,0.7h-31.1c0,2.7,0,6.7,0,8.3c0,2.4,0,4.6-0.1,6.9h31.3c0,0-1.5,15.3-8.7,24.8
	c-1.3,2.1-2.7,4-4.2,5.7c4.8,6.2,11.3,12.3,19.7,17.9C457.8,515.7,457.6,516.3,457.1,515.8z"/>
<path class="st0" d="M340,366.6v-56.7l-43.6,59h35.2v14.4h8.4v-14.4h9.1v-2.4H340z M331.6,366.6h-30.4l30.4-41.2V366.6z"/>
<path class="st0" d="M379.2,335.5c-6.6,0-12.7,2.7-17,7.1c-0.9-17.8,7.3-32,20.8-30.3c8,1.5,14.5,7.9,16,16.2l2.5-0.4
	c-1.8-10.9-11.4-18.8-22.6-18.6c-8.3,0.3-16,5.3-19.8,13.2c-3.7,7.4-5.6,17.4-4.7,36.4c0.8,16.6,11.9,25.9,24.9,25.9
	c13.4,0,24.4-11.1,24.3-24.8C403.5,346.5,392.6,335.5,379.2,335.5z M378.6,382.5c-8.8,0-16-9.3-16.4-21.2c0-0.4,0-0.7,0-1
	c0-12.3,7.4-22.3,16.4-22.3s16.4,10,16.4,22.3C395,372.5,387.6,382.5,378.6,382.5z"/>
<polyline class="st0" points="393.6,442.5 393.6,442.5 393.4,442.4 393.1,442.8 "/>
</svg>
