<?xml version="1.0" encoding="utf-8"?>
<!-- Generator: Adobe Illustrator 22.1.0, SVG Export Plug-In . SVG Version: 6.00 Build 0)  -->
<svg version="1.1" id="レイヤー_1" xmlns="http://www.w3.org/2000/svg" xmlns:xlink="http://www.w3.org/1999/xlink" x="0px"
	 y="0px" width="301px" height="80.7px" viewBox="0 0 301 80.7" style="enable-background:new 0 0 301 80.7;" xml:space="preserve">
<style type="text/css">
	.st0{fill:#7F1083;}
	.st1{fill:#5BBEE4;}
	.st2{fill:#FFFFFF;}
	.st3{fill:#878787;}
</style>
<polygon class="st0" points="73.6,12.3 73.6,75.9 12.2,75.9 7.5,80.8 78.8,80.8 78.8,6.9 "/>
<path class="st1" d="M0,73.8h71.3V-0.1L0,73.8z"/>
<path class="st2" d="M54.8,55l-9.2,12.4H53v3h1.8v-3h1.9v-0.5h-1.9V55z M53.1,66.9h-6.4l6.4-8.6V66.9z"/>
<path class="st2" d="M63.1,60.4c-1.4,0-2.6,0.6-3.6,1.5l0,0c-0.2-3.7,1.5-6.7,4.4-6.4c1.7,0.3,3.1,1.7,3.4,3.4l0.5-0.1
	c-0.4-2.3-2.4-4-4.8-3.9c-1.7,0-3.3,1.1-4.2,2.8c-0.8,1.6-1.2,3.7-1,7.7c0.2,3.5,2.5,5.4,5.2,5.4c2.8,0,5.1-2.3,5.1-5.2
	C68.2,62.7,65.9,60.4,63.1,60.4z M62.9,70.2c-1.8,0-3.4-2-3.4-4.5c0-0.1,0-0.1,0-0.2l0,0c0-2.6,1.5-4.7,3.5-4.7
	c1.9,0,3.5,2.1,3.5,4.7C66.4,68.1,64.8,70.2,62.9,70.2z"/>
<title>Group</title>
<desc>Created with Sketch.</desc>
<path class="st3" d="M112.1,72.9c-0.9,0.5-1.9,0.7-3.1,0.7s-2.2-0.2-3.1-0.7s-1.6-1.1-2.1-2c-0.5-0.8-0.9-1.7-1.1-2.7
	s-0.4-1.9-0.4-3s0.1-2.1,0.4-3c0.2-0.9,0.6-1.8,1.1-2.7c0.5-0.8,1.2-1.5,2.1-2s1.9-0.7,3.1-0.7s2.2,0.2,3.1,0.7s1.6,1.1,2.1,2
	c0.5,0.8,0.9,1.7,1.1,2.7c0.2,0.9,0.4,1.9,0.4,3s-0.1,2.1-0.4,3c-0.2,0.9-0.6,1.8-1.1,2.7C113.7,71.8,113,72.4,112.1,72.9z
	 M108.9,72.2c0.9,0,1.7-0.2,2.3-0.6c0.7-0.4,1.2-1,1.6-1.6c0.4-0.7,0.7-1.4,0.8-2.2c0.2-0.8,0.3-1.6,0.3-2.4c0-1.2-0.2-2.4-0.5-3.4
	s-0.8-1.8-1.6-2.5c-0.8-0.7-1.8-1-2.9-1c-0.9,0-1.7,0.2-2.3,0.6c-0.7,0.4-1.2,1-1.6,1.6c-0.4,0.7-0.7,1.4-0.8,2.2
	c-0.2,0.8-0.3,1.6-0.3,2.4c0,1.2,0.1,2.4,0.4,3.4s0.8,1.8,1.6,2.5C106.8,71.9,107.8,72.2,108.9,72.2z"/>
<path class="st3" d="M119.7,73.4V57.2h9.4v1.5h-7.8v5.5h5.3v1.5h-5.3v7.6h-1.6C119.7,73.3,119.7,73.4,119.7,73.4z"/>
<path class="st3" d="M132.7,73.4V57.2h9.4v1.5h-7.8v5.5h5.3v1.5h-5.3v7.6h-1.6L132.7,73.4L132.7,73.4z"/>
<path class="st3" d="M145.7,73.4V57.2h1.6v16.1L145.7,73.4L145.7,73.4z"/>
<path class="st3" d="M158,73.7c-1.2,0-2.2-0.2-3.1-0.7c-0.9-0.5-1.6-1.1-2.1-1.9s-0.9-1.7-1.2-2.7s-0.4-2-0.4-3.1
	c0-1.5,0.2-2.9,0.7-4.1c0.5-1.2,1.2-2.2,2.2-3s2.3-1.2,3.8-1.2c1.3,0,2.4,0.2,3.1,0.7c0.7,0.5,1.4,1.1,1.8,1.9l-1.4,0.8
	c-0.4-0.6-0.9-1.1-1.4-1.5s-1.2-0.5-2.1-0.5c-0.9,0-1.7,0.2-2.3,0.6c-0.7,0.4-1.2,1-1.6,1.6c-0.4,0.7-0.6,1.4-0.8,2.2
	s-0.3,1.6-0.3,2.4c0,1.2,0.2,2.4,0.5,3.4s0.9,1.8,1.7,2.5s1.7,1,2.8,1c1.7,0,2.9-0.7,3.7-2.1l1.4,0.6c-0.4,0.8-1.1,1.5-1.9,2.1
	C160.4,73.4,159.3,73.7,158,73.7z"/>
<path class="st3" d="M167,73.4V57.2h1.6v16.1L167,73.4L167,73.4z"/>
<path class="st3" d="M182.8,73.4l-1.5-4.2H175l-1.4,4.2H172l5.6-16.1h1.2l5.7,16.1H182.8z M180.9,67.8l-2.2-6.5
	c-0.2-0.7-0.4-1.2-0.5-1.5l-0.2,0.6c-0.1,0.4-0.2,0.7-0.3,0.9l-2.2,6.5H180.9z"/>
<path class="st3" d="M187.8,73.4V57.2h1.6v14.6h8v1.5L187.8,73.4L187.8,73.4z"/>
<path class="st3" d="M207,73.4l-3.1-16.1h1.7l2,11.1l0.3,1.6c0-0.2,0.2-0.7,0.4-1.6l3.2-11.1h1.2l3.1,11.1c0.2,0.6,0.3,1,0.3,1.3
	l0.3-1.4l2.3-11.1h1.7l-3.5,16.1h-1l-3.5-11.6c-0.2-0.6-0.3-1.1-0.4-1.4c-0.1,0.3-0.2,0.8-0.4,1.4l-3.5,11.6L207,73.4L207,73.4z"/>
<path class="st3" d="M223.9,73.4V57.2h9.2v1.5h-7.6v5.5h5.1v1.5h-5.1v6h8.1v1.5h-9.7V73.4z"/>
<path class="st3" d="M237.6,57.2h5.4c1.7,0,3,0.4,3.8,1.2s1.2,1.8,1.2,3c0,0.8-0.2,1.5-0.7,2.1s-1.1,1-1.9,1.3
	c0.9,0.2,1.7,0.7,2.3,1.4c0.6,0.7,0.9,1.6,0.9,2.6c0,1.3-0.4,2.4-1.2,3.2c-0.8,0.9-2.1,1.3-3.9,1.3h-5.7V57.2H237.6z M242.6,64.3
	c1.2,0,2.2-0.3,2.8-0.8c0.7-0.5,1-1.2,1-2.1c0-1.8-1.1-2.7-3.3-2.7h-3.9v5.6H242.6z M243.6,71.9c1.2,0,2.1-0.3,2.6-0.8
	c0.5-0.6,0.8-1.3,0.8-2.1c0-2.2-1.4-3.3-4.1-3.3h-3.6v6.2C239.3,71.9,243.6,71.9,243.6,71.9z"/>
<path class="st3" d="M262.3,73.7c-1.3,0-2.4-0.3-3.4-0.9s-1.6-1.4-2-2.3l1.5-0.6c0.3,0.7,0.8,1.3,1.5,1.7c0.7,0.4,1.5,0.6,2.4,0.6
	c1.1,0,1.9-0.3,2.5-0.8s0.9-1.3,0.9-2.2c0-0.9-0.3-1.7-1-2.2c-0.7-0.6-1.5-1.1-2.7-1.5c-0.7-0.2-1.2-0.5-1.7-0.7s-1-0.6-1.5-0.9
	c-0.5-0.4-0.9-0.8-1.1-1.3c-0.3-0.5-0.4-1.1-0.4-1.7c0-1.1,0.4-2,1.3-2.7s2-1.1,3.5-1.1c1.2,0,2.2,0.2,3,0.7s1.3,1.1,1.5,1.8
	l-1.5,0.5c-0.2-0.5-0.6-0.8-1.1-1.2c-0.5-0.3-1.2-0.5-1.9-0.5c-0.9,0-1.7,0.2-2.2,0.6c-0.5,0.4-0.8,1-0.8,1.7c0,0.4,0.1,0.8,0.3,1.1
	s0.5,0.6,0.9,0.9c0.4,0.3,0.8,0.5,1.1,0.6s0.8,0.4,1.4,0.6c0.6,0.2,1.2,0.5,1.7,0.8c0.5,0.3,1,0.6,1.5,1s0.9,0.9,1.1,1.5
	c0.3,0.6,0.4,1.2,0.4,2c0,1.4-0.5,2.5-1.4,3.3C265.1,73.3,263.8,73.7,262.3,73.7z"/>
<path class="st3" d="M271.6,73.4V57.2h1.6v16.1L271.6,73.4L271.6,73.4z"/>
<path class="st3" d="M283,58.8v14.6h-1.6V58.8H277v-1.5h10.5v1.5H283z"/>
<path class="st3" d="M291.3,73.4V57.2h9.2v1.5h-7.6v5.5h5.1v1.5h-5.1v6h8.1v1.5h-9.7V73.4z"/>
<g>
	<path class="st1" d="M253.9,9.3l-22.4,30.3h18.1V47h4.3v-7.4h4.6v-1.2h-4.6V9.3z M249.6,38.4H234l15.6-21.1V38.4z"/>
	<path class="st1" d="M274,22.5c-3.4,0-6.5,1.4-8.7,3.6l0,0C264.9,17,269,9.7,276,10.5c4.1,0.8,7.5,4.1,8.2,8.3l1.2-0.2
		c-0.9-5.6-5.9-9.7-11.6-9.5c-4.3,0.1-8.2,2.7-10.2,6.8c-1.9,3.8-2.8,8.9-2.4,18.7c0.4,8.5,6.1,13.3,12.8,13.3
		c6.9,0,12.5-5.7,12.5-12.7C286.5,28.1,280.9,22.5,274,22.5 M273.7,46.6c-4.5,0-8.2-4.8-8.4-10.9c0-0.2,0-0.4,0-0.5l0,0
		c0-6.3,3.8-11.4,8.4-11.4s8.4,5.1,8.4,11.4C282.1,41.4,278.3,46.6,273.7,46.6"/>
	<path class="st1" d="M124.8,10.4c-0.1,0-1.8,1.3-2.7,2H105c-1.5-0.6-4.4-1.8-4.5-1.8s-0.3-0.1-0.3,0c1,10.2,0.7,26.2,0.3,35.8l0,0
		c0,0.1,0.1,0.1,0.1,0.1h4c0.1,0,0.1-0.1,0.1-0.1c0-0.9,0-1.8,0-2.7h18.4c0,1,0,1.9,0,2.7c0,0.1,0.1,0.1,0.1,0.1h3.7
		c0.1,0,0.1-0.1,0.1-0.1l0,0c-0.1-8.5-0.2-22,0.2-32c0.6-1,1.5-1.2,1.3-1.5C128.4,12.5,125,10.4,124.8,10.4 M123.2,26.3h-18.3
		c0-6,0-11.1,0-13h18.4C123.2,15.2,123.2,20.4,123.2,26.3 M104.8,42.7c0-4.7,0-10.3,0-15.4h18.3c0,5.1,0,10.7,0,15.4H104.8z"/>
	<path class="st1" d="M166.8,38.8L166.8,38.8c-0.1-6.7-0.2-7.6,0.1-14.2c0.5-0.8,1.2-1,1-1.2c-0.3-0.3-2.9-2-3.1-2
		c-0.1,0-1.9,1.4-2.5,1.8h-7.1c-0.7-0.4-3.8-1.7-3.9-1.7c-0.1,0-0.2-0.1-0.2,0c0.8,8.1,0.5,9.8,0.2,17.5l0,0c0,0.1,0.1,0.1,0.1,0.1
		h2.9c0.1,0,0.1-0.1,0.1-0.1c0-1,0-2.1,0-3h9c0,0.9,0,1.9,0,2.9c0,0.1,0.1,0.1,0.1,0.1h3C166.8,38.9,166.8,38.9,166.8,38.8
		 M154.6,35c0-5.1,0-9,0-10.8h9c0,1.8,0,5.6,0,10.8H154.6z"/>
	<path class="st1" d="M173.5,13.3c-0.2,0-2,1.5-2.7,2.1h-16c1-0.8,3.9-3.2,4.5-3.8c0.7-0.7,1.8-0.4,2-0.8c0.2-0.4-2-1.3-5.2-2.3
		c-0.2,1.1-1.3,5.3-2.4,6.9H147c-1.4-0.6-4.1-1.8-4.2-1.8c-0.1,0-0.3-0.1-0.3,0c1,10.2,0.7,23.1,0.3,32.7l0,0c0,0.1,0.1,0.1,0.1,0.1
		h3.6c0.1,0,0.1-0.1,0.1-0.1c0.1-10.3,0-26.2,0-30h25.2c0,3.5-0.1,15.9,0,25.5c0,1.4-0.8,1.5-1.7,1.4c-1.4-0.2-4.5-0.5-4.6-0.4
		s-0.5,0.4,0.1,0.6c2,0.6,5.9,2.6,7.7,4.1c0.4-0.1,0.7-0.2,1-0.4c0.8-0.5,1.1-1.4,1.1-2.2c-0.1-8.5-0.2-18.1,0.2-27.6
		c0.6-1,1.5-1.2,1.3-1.5C176.8,15.4,173.7,13.3,173.5,13.3 M175.3,18.8v0.3l-0.2,1.1L175.3,18.8z M175.3,19.2c0-0.5,0.1-0.9,0.2-1.2
		L175.3,19.2z"/>
	<path class="st1" d="M225.8,46.8c-4.4-2.9-7.8-6.1-10.3-9.4c0.8-0.9,1.5-1.9,2.2-2.9c3.8-5,4.6-13,4.6-13h-16.4
		c0-1.2,0.1-2.4,0.1-3.6c0-0.8,0-2.9,0-4.3h16.2c0,0,2.1,0,2.1-0.3c0-0.5-4-3.8-4.2-3.8s-2,2.3-2.8,3.2H207c-0.3-0.1-0.6-0.3-1-0.5
		l0,0h-0.1c-1.6-0.8-3.8-1.9-3.9-1.9c-0.1,0-0.3-0.1-0.3,0c0.3,2.7,0.4,5.2,0.5,7.7c0,5.7,0.4,10.3-1,15.5c-1.5,0.6-3.5,1.1-5.6,1.7
		c0-4.2,0-8.7,0-12.6h5.3v-0.9c-0.5,0-1.9-2.4-2.4-2.4c-0.4,0-1.3,1.9-2.1,2.4h-0.8c0-4.9,0-8.8,0-10.1c0.8-0.3,1-1,0.8-1.1
		c-0.6-0.2-4.7-1.2-4.8-1.3c-0.1,0-0.3-0.1-0.3,0c0.4,4.4,0.6,8.5,0.6,12.5h-4.4v0.9h4.4c0,4.5-0.1,8.9-0.3,13.6
		c-2.7,0.6-4.9,1-5,1.1c0,0.9,0.9,3.7,1.5,4.3c0.2,0.2,0.6-0.5,1.2-0.9c0.6-0.3,7.5-3.7,11.5-6.3c-0.8,2.7-2.2,5.7-4.3,9
		c-0.1,0.2,0.2,0.7,0.6,0.4c6.4-5.2,8.2-12.6,8.6-21.3h12.4c-0.1,3-1.3,7.6-4.5,12.4c-1.8-2.8-2.9-5.6-3.7-8.5h-3.2
		c0-0.1,1.1,5.7,5.1,10.9c-2.5,3.1-5.9,6.1-10.4,8.8c-0.4,0.3-0.1,0.8,0.3,0.7c0.6-0.2,6.6-2.2,11.9-7.4l0.1,0.1
		c5.5,5.6,11.6,7.6,11.9,7.6C225.8,47.2,225.9,46.9,225.8,46.8"/>
	<polyline class="st1" points="192.3,8.6 192.3,8.6 192.2,8.6 192.1,8.8 	"/>
</g>
</svg>
