<?xml version="1.0" encoding="UTF-8"?>
<svg xmlns="http://www.w3.org/2000/svg" viewBox="0 0 150 150">
  <defs>
    <style>
      .cls-1, .cls-2 {
        fill: #3baec6;
      }

      .cls-2 {
        fill-rule: evenodd;
      }
    </style>
  </defs>
  <g id="PARTS">
    <path class="cls-1" d="M71.77,69.8c-2.3,0-4.68-1.38-4.68-4.07,0-12.13,10.67-12.74,13.67-19.27.46-1.07.69-2.15.69-3.22,0-3.99-3.15-7.75-9.29-7.75s-10.13,2.84-10.13,9.37c0,2.53-2.23,3.76-4.61,3.76-2.69,0-5.53-1.54-5.53-4.45,0-10.44,6.83-17.97,20.19-17.97s19.81,8.37,19.81,16.81c0,2.46-.54,4.99-1.61,7.29-3.68,7.75-13.82,8.29-13.82,15.35,0,2.76-2.3,4.15-4.68,4.15ZM71.69,88.15c-4.3,0-7.83-3.3-7.83-7.6s3.53-7.83,7.83-7.83,7.83,3.53,7.83,7.83-3.53,7.6-7.83,7.6Z"/>
    <path class="cls-2" d="M61.63,120.12c-.32,0-.78-.05-1.17-.26l-.1-.05c-.93-.46-1.53-1.44-1.53-2.48v-11.59h-28.84c-9.47,0-17.18-7.7-17.18-17.17V26.24c0-9.47,7.71-17.17,17.18-17.17h86.29c9.47,0,17.17,7.71,17.17,17.17v62.32c0,9.47-7.71,17.17-17.17,17.17h-34.56l-18.42,13.82c-.49.35-1.09.56-1.68.56ZM29.99,14.66c-6.39,0-11.59,5.2-11.59,11.59v62.32c0,6.39,5.2,11.59,11.59,11.59h31.64c1.54,0,2.79,1.25,2.79,2.79v8.79l14.71-11.03c.48-.37,1.06-.56,1.68-.56h35.47c6.39,0,11.59-5.2,11.59-11.59V26.24c0-6.39-5.2-11.59-11.59-11.59H29.99Z"/>
  </g>
  <g id="FONT">
    <g>
      <path class="cls-1" d="M13.85,143.74c0,3.92-3.04,4.86-5.39,4.86-2.77,0-5.7-1.56-5.7-4.51,0-3.26,2.9-4.55,6.16-4.55.57,0,1.19.07,1.83.18-.07-3.3-.15-7.44-.22-9.88-.04-1.08.95-1.5,1.61-1.5.79,0,1.56.46,1.56,1.43v.04c-.02.84-.02,1.85-.02,2.97,1.58,0,3.74-.13,5.63-.35.07,0,.13-.02.2-.02.88,0,1.34.79,1.34,1.56,0,.73-.4,1.43-1.23,1.52-1.87.2-4.25.31-5.9.33l.04,4.6c1.76.57,7.48,3.15,7.48,5.15,0,.88-.84,1.67-1.72,1.67-.4,0-.79-.15-1.14-.53-1.17-1.23-2.93-2.46-4.53-3.17v.2ZM10.79,142.62c-.73-.18-1.32-.26-1.87-.26-2.55,0-3.17.9-3.17,1.83,0,.64.84,1.52,2.71,1.52,1.47,0,2.33-.53,2.33-2.16v-.92Z"/>
      <path class="cls-1" d="M35.06,148.14c-3.19-2.62-6.98-4.47-10.52-6.56-1.74-1.03-2.57-2.35-2.57-3.63,0-1.41.99-2.77,2.86-3.67,3.32-1.61,7.06-3.26,10.08-5.33.4-.26.77-.37,1.14-.37.95,0,1.67.84,1.67,1.69,0,.53-.24,1.03-.86,1.41-2.84,1.69-7.17,3.67-10.28,5.13-.81.4-1.21.77-1.21,1.17s.42.79,1.21,1.25c3.56,2.05,7.31,3.78,10.63,6.2.55.4.77.9.77,1.39,0,.92-.79,1.78-1.76,1.78-.37,0-.77-.13-1.17-.46Z"/>
      <path class="cls-1" d="M42.34,130.52c1.17.09,2.49.13,3.92.13.29-1.61.44-2.4,1.67-2.4.81,0,1.67.53,1.67,1.3,0,.07,0,.09-.24,1.03,2.46-.11,4.97-.31,7.13-.53.11-.02.2-.02.29-.02,1.1,0,1.67.73,1.67,1.45,0,.64-.48,1.28-1.47,1.36-2.2.2-5.21.42-8.21.51-.09.57-.2,1.14-.26,1.74.9-.18,1.89-.26,2.93-.26.29,0,.57,0,.86.02.2-.62.73-.86,1.3-.86.81,0,1.72.55,1.74,1.34,3.32.99,4.95,3.46,4.95,6.01,0,2.4-1.45,4.86-4.25,6.23-1.74.84-3.92,1.19-5.02,1.19s-1.67-.79-1.67-1.58c0-.66.48-1.32,1.58-1.39,1.54-.07,3.08-.4,3.92-.9,1.41-.86,2.27-2.33,2.27-3.74s-.77-2.64-2.55-3.32c-2.31,5.76-7.26,9.75-10.96,9.75-.59,0-3.61-.09-3.61-4.27,0-3.08,1.91-5.74,5.3-7.24.11-.02.2-.07.29-.11.07-.86.13-1.72.24-2.53-1.32,0-2.58-.02-3.67-.09-1.01-.07-1.54-.79-1.54-1.47s.51-1.34,1.52-1.34h.22ZM45.53,138.81c-1.72,1.06-2.71,2.64-2.71,4.25,0,1.45.81,1.67,1.3,1.67.68,0,1.58-.4,2.31-.88-.57-1.32-.84-3.1-.9-5.04ZM51.36,137.32c-1.1,0-2.13.15-3.06.37v.31c0,1.34.13,2.62.53,3.76,1.14-1.3,2.11-2.88,2.75-4.45h-.22Z"/>
      <path class="cls-1" d="M76.64,129.31c1.25,0,1.94.88,1.94,1.78,0,.57-.29,1.17-.88,1.54-1.34.84-3.54,2.18-5.1,3.01-.11.07-.18.11-.18.13s.04.04.11.04c.02,0,.07-.02.13-.02,5.5-.88,8.47,2.53,8.47,5.79s-2.9,6.73-9.35,6.73c-5.79,0-7.15-2.77-7.15-4.49s1.41-3.37,3.96-3.37c3.06,0,5.21,1.94,5.21,4.95,2.77-.64,4.05-2.33,4.05-3.94,0-1.78-1.58-3.43-4.47-3.43s-4.86.42-8.54,2.77c-.31.2-.62.29-.88.29-.92,0-1.65-.9-1.65-1.76,0-.55.29-1.08.95-1.39,5.41-2.53,10.34-5.61,10.34-5.83,0-.07-.11-.09-.26-.09h-.15c-2.71.24-5.26.55-6.82.55-.13,0-1.67,0-1.67-1.63,0-.7.42-1.36,1.3-1.36h.11c.44.02.99.04,1.65.04,2.27,0,5.68-.15,8.76-.33h.13ZM70.9,145.48c0-.81-.18-2.46-2.11-2.46-.79,0-1.23.4-1.23.88,0,.68.9,1.56,2.99,1.74h.35v-.15Z"/>
      <path class="cls-1" d="M94.17,148.12c-8.43,0-9.64-3.74-9.64-5.65,0-2.05,1.36-3.87,2.66-3.87.86,0,1.63.62,1.63,1.39,0,.33-.15.68-.53,1.03-.44.4-.7.9-.7,1.41,0,1.32,1.89,2.6,6.14,2.6,2.42,0,4.95-.42,6.4-.84.18-.04.35-.09.51-.09.95,0,1.54.84,1.54,1.67,0,.68-.4,1.39-1.36,1.61-1.67.4-4.14.75-6.64.75ZM100.69,132.37c0,.79-.55,1.54-1.45,1.54-.09,0-.2,0-.29-.02-2.38-.4-4.6-.55-6.6-.55s-3.85.15-5.33.4c-.09.02-.15.02-.24.02-.84,0-1.32-.75-1.32-1.52,0-.7.42-1.43,1.41-1.56,1.83-.26,3.94-.37,6.05-.37s4.11.11,5.94.35c-.18-.59-.37-1.17-.66-1.83-.04-.13-.09-.24-.09-.37,0-.53.53-.9,1.06-.9.37,0,.75.2.95.64.73,1.58,1.1,2.68,1.1,3.23,0,.44-.22.73-.53.9v.04ZM103.39,132.65c-.42,0-.84-.24-.97-.79-.26-1.23-.53-2.02-.95-2.99-.07-.15-.09-.31-.09-.44,0-.55.48-.9,1.01-.9.4,0,.79.2,1.01.7.31.73,1.08,2.79,1.08,3.37,0,.66-.55,1.06-1.1,1.06Z"/>
      <path class="cls-1" d="M121.37,145.48c1.12.2,2.27.42,3.52.73.64.15.9.64.9,1.14,0,.62-.46,1.28-1.14,1.28-.11,0-.22,0-.35-.04-2.07-.57-3.39-.88-5.19-1.21-.55-.11-.79-.53-.79-.99,0-.31.13-.66.4-.9h-6.47c.24.29.37.66.37.97,0,.37-.15.7-.55.86-1.87.66-3.28.97-5.3,1.3-.07,0-.15.02-.22.02-.81,0-1.32-.75-1.32-1.41,0-.51.26-.97.92-1.03,1.45-.15,2.57-.33,3.89-.7h-1.76c-1.14,0-1.74-.57-1.74-1.72v-6.71c0-.22.02-.42.07-.59-.73-.07-1.41-.73-1.41-1.43,0-.24.09-.51.26-.73.97-1.19,1.01-1.92,1.01-3.94,0-.81.62-1.89,1.89-1.89s3.7-.02,5.61-.4c.07-.02.15-.02.22-.02.73,0,1.3.79,1.3,1.5,0,.44-.24.86-.88.95-1.08.18-4,.35-5.57.35v.64h5.72c.59,0,.9.55.9,1.08s-.31,1.1-.9,1.1h-1.14v1.69h1.94c-.31-.29-.55-.66-.55-1.03,0-.22.09-.48.31-.68.79-.81.88-1.39.88-2.64v-.64c0-.81.64-1.89,1.92-1.89s3.5-.02,5.39-.4c.07-.02.13-.02.2-.02.77,0,1.32.75,1.32,1.45,0,.46-.29.9-.99.99-1.76.24-3.52.35-5.11.35-.02,0-.11.09-.11.11v.53h6.05c.59,0,.9.55.9,1.08s-.31,1.1-.9,1.1h-1.63v1.74c.79.13,1.23.68,1.23,1.65v6.71c0,1.14-.62,1.72-1.74,1.72h-1.36ZM111.07,133.67h-2.27c-.15.62-.37,1.14-.73,1.69h2.99v-1.69ZM121.81,137.49h-12.61v.84h12.61v-.84ZM121.81,140h-12.61v.81h12.61v-.81ZM121.81,142.49h-12.61v.92h12.61v-.92ZM120.69,133.67h-2.22c-.22.62-.55,1.1-1.03,1.69h3.26v-1.69Z"/>
      <path class="cls-1" d="M127.77,130.17c0-1.06.51-1.54,1.56-1.54h6.03c1.06,0,1.58.48,1.58,1.54v5.61c0,1.01-.53,1.56-1.58,1.56h-4.86v10.08c0,.79-.68,1.17-1.36,1.17s-1.36-.37-1.36-1.17v-17.25ZM134.46,130.98h-3.96v1.06h3.96v-1.06ZM134.46,133.93h-3.96v1.14h3.96v-1.14ZM144.51,137.34h-5.08c-1.01,0-1.54-.55-1.54-1.56v-5.61c0-1.06.53-1.54,1.54-1.54h6.23c1.06,0,1.58.48,1.58,1.54v15.86c0,1.74-.77,2.55-2.95,2.55-.7,0-1.56-.07-2.6-.24-.68-.11-.99-.7-.99-1.3,0-.4.11-.73.24-.9h-7.37c-1.03,0-1.61-.59-1.61-1.63v-4.38c0-1.01.57-1.61,1.61-1.61h7.61c1.03,0,1.63.59,1.63,1.61v4.38c0,.55-.2.88-.44,1.12.62.11,1.04.2,1.39.2.53,0,.75-.18.75-.51v-7.99ZM140.18,141.04h-5.54v2.62h5.54v-2.62ZM144.51,130.98h-4.11v1.06h4.11v-1.06ZM144.51,133.93h-4.11v1.14h4.11v-1.14Z"/>
    </g>
  </g>
</svg>